<?xml version="1.0" encoding="utf-8"?>
<!-- Uploaded to: SVG Repo, www.svgrepo.com, Generator: SVG Repo Mixer Tools -->
<!DOCTYPE svg PUBLIC "-//W3C//DTD SVG 1.1//EN" "http://www.w3.org/Graphics/SVG/1.1/DTD/svg11.dtd">
<svg fill="#000000" width="800px" height="800px" viewBox="0 0 1000 1000" version="1.1" xmlns="http://www.w3.org/2000/svg" xmlns:xlink="http://www.w3.org/1999/xlink"  enable-background="new 0 0 1000 1000" xml:space="preserve">

<g>
<g transform="translate(0.000000,512.000000) scale(0.100000,-0.100000)">
<path d="M4109.7,4985.5c-155.1-44-227.8-86.2-340.8-191.5c-95.7-88.1-195.3-264.2-214.4-375.3c-5.7-30.6-44-268.1-88.1-526.5c-128.3-765.9-122.5-1035.8,23-1416.9c49.8-134,72.8-160.8,294.9-382.9l239.3-239.3v-744.8V361.5l-162.7-166.6L3698,30.2v-1755.8v-1753.9h-275.7c-248.9,0-279.5-3.8-325.5-40.2c-49.8-40.2-67-124.5-38.3-199.1c19.1-47.9,113-86.2,218.3-86.2h95.7v-325.5v-325.5H1789.1c-1677.3-1.9-1619.8,1.9-1667.7-90c-36.4-67-26.8-120.6,32.5-180l55.5-55.5H5000h4790.6l55.5,55.5c59.4,59.4,68.9,113,32.6,180c-47.9,91.9,9.6,88.1-1665.8,90H6627.5v325.5v325.5h95.7c105.3,0,199.1,38.3,218.3,86.2c28.7,74.7,11.5,158.9-38.3,199.1c-49.8,40.2-63.2,40.2-1464.7,40.2h-1415v1690.7V-100l488.2,488.3L5000,876.5V-205.3v-1081.8L4594.1-1693c-381-381-405.9-409.7-405.9-476.7c0-53.6,13.4-80.4,53.6-114.9c28.7-24.9,65.1-46,80.4-46c23,0,26.8-68.9,26.8-440.4v-442.3l47.9-46c51.7-51.7,151.3-63.2,203-23c68.9,53.6,74.7,97.7,74.7,658.7v551.4l162.7,162.7l162.7,162.8v-729.5v-729.5l47.9-51.7c61.3-67,164.7-68.9,229.8-1.9l47.9,46v1058.8v1058.8l222.1,220.2C5808-616.9,5834.8-574.8,5804.2-481c-24.9,74.7-67,103.4-157,103.4c-51.7,0-84.2-23-191.5-128.3l-130.2-128.3V671.7v1307.7l-47.9,46c-63.2,65.1-166.6,65.1-229.8,0c-47.9-46-47.9-51.7-47.9-367.6v-321.7l-325.5-325.5L4350.9,687l-5.8,654.8l-5.7,654.8l-262.3,262.3c-254.6,258.5-264.2,268.1-315.9,417.4c-47.9,139.8-53.6,176.2-51.7,421.2c0,248.9,30.6,499.7,105.3,863.5c17.2,93.8,23,99.6,90,111c118.7,17.2,298.7,120.6,394.4,222.1c126.4,134,185.7,277.6,197.2,472.9c9.6,147.4,7.7,157-38.3,204.9C4396.9,5033.3,4285.8,5037.2,4109.7,4985.5z M4107.8,4570c-34.5-51.7-172.3-160.8-203-160.8c-26.8,0,34.5,101.5,93.8,155.1C4111.6,4669.5,4172.9,4671.5,4107.8,4570z M6302-4130.4v-325.5h-562.9h-561l-11.5,118.7c-9.6,97.6-19.1,128.3-61.3,162.8c-63.2,55.5-147.4,55.5-210.6,0c-42.1-34.5-51.7-65.1-61.3-162.8l-11.5-118.7h-561H3698v325.5v325.5h1302h1302V-4130.4z"/>
<path d="M4927.2,4026.2c-67-28.7-99.6-130.2-99.6-315.9v-162.8H4709h-118.7l-155.1,151.3c-168.5,164.7-235.5,197.2-314,153.2c-61.3-34.5-105.3-120.6-90-176.1c7.7-23,80.4-114.9,164.7-204.9l153.2-162.7v-116.8v-118.7l-118.7-7.7c-97.6-7.7-124.5-17.2-162.7-61.3c-55.5-65.1-57.4-143.6-3.8-210.6c34.5-44,51.7-49.8,166.6-49.8h128.3l51.7-113c65.1-139.8,185.7-262.3,321.7-325.5c88.1-42.1,132.1-49.8,268.1-49.8s180,7.7,268,49.8c136,63.2,256.6,185.7,321.7,325.5l51.7,113h128.3c114.9,0,132.1,5.7,166.6,49.8c53.6,67,51.7,145.5-3.8,210.6c-38.3,44-65.1,53.6-162.7,61.3l-118.7,7.7v116.8v114.9l153.2,158.9c82.3,86.2,157,180,164.7,206.8c26.8,105.3-88.1,222.1-193.4,195.3c-30.6-7.7-124.5-80.4-210.6-166.6l-155.1-151.3H5291h-118.7v162.8c0,191.5-32.5,289.1-105.3,315.9C5007.7,4049.2,4986.6,4049.2,4927.2,4026.2z M5325.5,3024.8c0-245.1-40.2-340.8-172.3-409.8c-105.3-55.5-201-55.5-306.3,0c-132.1,68.9-172.3,164.7-172.3,409.8V3222H5000h325.5V3024.8z"/>
<path d="M6407.3,2716.6c-30.6-15.3-248.9-220.2-482.5-455.7c-405.9-407.8-427-432.7-427-501.6c0-63.2,15.3-88.1,120.6-195.3c145.5-149.3,206.8-168.5,296.8-93.8c76.6,65.1,82.3,153.2,15.3,233.6l-47.9,55.5l291,291l291,291l210.6-210.6L6886,1920l-434.6-436.5c-237.4-239.3-442.3-453.8-453.8-476.8c-15.3-28.7-21.1-639.5-21.1-2119.6v-2075.5l49.8-59.4c63.2-76.6,158.9-82.3,227.9-11.5l47.9,46v2035.3V857.4l488.2,488.2c472.9,474.8,488.3,492.1,488.3,566.7c0,72.8-13.4,88.1-367.6,442.3c-202.9,201-386.8,371.5-407.8,377.2C6482,2737.6,6439.8,2730,6407.3,2716.6z"/>
</g>
</g>
</svg>